<mxfile host="app.diagrams.net" modified="2024-04-05T05:39:47.070Z" agent="Mozilla/5.0 (Windows NT 10.0; Win64; x64) AppleWebKit/537.36 (KHTML, like Gecko) Chrome/122.0.0.0 Safari/537.36 Edg/122.0.0.0" etag="dqW97lXosLKjIV4VXddM" version="24.2.2" type="device">
  <diagram name="Page-1" id="oYLnIwKT5NR0gaOxqe4Z">
    <mxGraphModel dx="2236" dy="1885" grid="1" gridSize="10" guides="1" tooltips="1" connect="1" arrows="1" fold="1" page="1" pageScale="1" pageWidth="850" pageHeight="1100" math="0" shadow="0">
      <root>
        <mxCell id="0" />
        <mxCell id="1" parent="0" />
        <mxCell id="VDKzRDDV_KGsR_dn3_d1-5" value="&lt;span style=&quot;font-size: 13px;&quot;&gt;Base Class: ChessPiece&lt;/span&gt;" style="swimlane;fontStyle=1;align=center;verticalAlign=top;childLayout=stackLayout;horizontal=1;startSize=26;horizontalStack=0;resizeParent=1;resizeParentMax=0;resizeLast=0;collapsible=1;marginBottom=0;whiteSpace=wrap;html=1;" parent="1" vertex="1">
          <mxGeometry x="-110" y="-390" width="340" height="192" as="geometry" />
        </mxCell>
        <mxCell id="VDKzRDDV_KGsR_dn3_d1-6" value="&lt;font style=&quot;font-size: 14px;&quot;&gt;- position: pair&amp;lt;int,int&amp;gt;&lt;/font&gt;&lt;div&gt;&lt;font size=&quot;3&quot;&gt;- isAlive: bool&lt;/font&gt;&lt;/div&gt;&lt;div&gt;&lt;font size=&quot;3&quot;&gt;- color: enum&lt;/font&gt;&lt;/div&gt;&lt;div&gt;&lt;font size=&quot;3&quot;&gt;&lt;br&gt;&lt;/font&gt;&lt;/div&gt;&lt;div&gt;&lt;br&gt;&lt;/div&gt;" style="text;strokeColor=none;fillColor=none;align=left;verticalAlign=top;spacingLeft=4;spacingRight=4;overflow=hidden;rotatable=0;points=[[0,0.5],[1,0.5]];portConstraint=eastwest;whiteSpace=wrap;html=1;" parent="VDKzRDDV_KGsR_dn3_d1-5" vertex="1">
          <mxGeometry y="26" width="340" height="64" as="geometry" />
        </mxCell>
        <mxCell id="VDKzRDDV_KGsR_dn3_d1-7" value="" style="line;strokeWidth=1;fillColor=none;align=left;verticalAlign=middle;spacingTop=-1;spacingLeft=3;spacingRight=3;rotatable=0;labelPosition=right;points=[];portConstraint=eastwest;strokeColor=inherit;" parent="VDKzRDDV_KGsR_dn3_d1-5" vertex="1">
          <mxGeometry y="90" width="340" height="2" as="geometry" />
        </mxCell>
        <mxCell id="VDKzRDDV_KGsR_dn3_d1-8" value="&lt;font style=&quot;font-size: 14px;&quot;&gt;+ getPosition(void): pair&amp;lt;int,int&amp;gt;&lt;/font&gt;&lt;div&gt;&lt;font style=&quot;font-size: 14px;&quot;&gt;+ isAlive(void): bool&lt;/font&gt;&lt;/div&gt;&lt;div&gt;&lt;font style=&quot;font-size: 14px;&quot;&gt;+ getColor(void): string&lt;/font&gt;&lt;/div&gt;&lt;div&gt;&lt;font style=&quot;font-size: 14px;&quot;&gt;+ movementRule(void): array&amp;lt;pairt&amp;lt;int,int&amp;gt;&amp;gt; = 0&lt;/font&gt;&lt;/div&gt;" style="text;strokeColor=none;fillColor=none;align=left;verticalAlign=top;spacingLeft=4;spacingRight=4;overflow=hidden;rotatable=0;points=[[0,0.5],[1,0.5]];portConstraint=eastwest;whiteSpace=wrap;html=1;" parent="VDKzRDDV_KGsR_dn3_d1-5" vertex="1">
          <mxGeometry y="92" width="340" height="100" as="geometry" />
        </mxCell>
        <mxCell id="VDKzRDDV_KGsR_dn3_d1-10" value="Pawn: ChessPiece" style="swimlane;fontStyle=1;align=center;verticalAlign=top;childLayout=stackLayout;horizontal=1;startSize=26;horizontalStack=0;resizeParent=1;resizeParentMax=0;resizeLast=0;collapsible=1;marginBottom=0;whiteSpace=wrap;html=1;" parent="1" vertex="1">
          <mxGeometry x="-120" width="190" height="100" as="geometry" />
        </mxCell>
        <mxCell id="VDKzRDDV_KGsR_dn3_d1-12" value="" style="line;strokeWidth=1;fillColor=none;align=left;verticalAlign=middle;spacingTop=-1;spacingLeft=3;spacingRight=3;rotatable=0;labelPosition=right;points=[];portConstraint=eastwest;strokeColor=inherit;" parent="VDKzRDDV_KGsR_dn3_d1-10" vertex="1">
          <mxGeometry y="26" width="190" height="8" as="geometry" />
        </mxCell>
        <mxCell id="VDKzRDDV_KGsR_dn3_d1-13" value="&lt;span style=&quot;font-size: 14px;&quot;&gt;+ movementRule(void): array&amp;lt;pairt&amp;lt;int,int&amp;gt;&amp;gt; = 0&lt;/span&gt;" style="text;strokeColor=none;fillColor=none;align=left;verticalAlign=top;spacingLeft=4;spacingRight=4;overflow=hidden;rotatable=0;points=[[0,0.5],[1,0.5]];portConstraint=eastwest;whiteSpace=wrap;html=1;" parent="VDKzRDDV_KGsR_dn3_d1-10" vertex="1">
          <mxGeometry y="34" width="190" height="66" as="geometry" />
        </mxCell>
        <mxCell id="VDKzRDDV_KGsR_dn3_d1-14" value="Rook: ChessPiece" style="swimlane;fontStyle=1;align=center;verticalAlign=top;childLayout=stackLayout;horizontal=1;startSize=26;horizontalStack=0;resizeParent=1;resizeParentMax=0;resizeLast=0;collapsible=1;marginBottom=0;whiteSpace=wrap;html=1;" parent="1" vertex="1">
          <mxGeometry x="100" width="190" height="100" as="geometry" />
        </mxCell>
        <mxCell id="VDKzRDDV_KGsR_dn3_d1-15" value="" style="line;strokeWidth=1;fillColor=none;align=left;verticalAlign=middle;spacingTop=-1;spacingLeft=3;spacingRight=3;rotatable=0;labelPosition=right;points=[];portConstraint=eastwest;strokeColor=inherit;" parent="VDKzRDDV_KGsR_dn3_d1-14" vertex="1">
          <mxGeometry y="26" width="190" height="8" as="geometry" />
        </mxCell>
        <mxCell id="VDKzRDDV_KGsR_dn3_d1-16" value="&lt;span style=&quot;font-size: 14px;&quot;&gt;+ movementRule(void): array&amp;lt;pairt&amp;lt;int,int&amp;gt;&amp;gt; = 0&lt;/span&gt;" style="text;strokeColor=none;fillColor=none;align=left;verticalAlign=top;spacingLeft=4;spacingRight=4;overflow=hidden;rotatable=0;points=[[0,0.5],[1,0.5]];portConstraint=eastwest;whiteSpace=wrap;html=1;" parent="VDKzRDDV_KGsR_dn3_d1-14" vertex="1">
          <mxGeometry y="34" width="190" height="66" as="geometry" />
        </mxCell>
        <mxCell id="VDKzRDDV_KGsR_dn3_d1-17" value="Bishop: ChessPiece" style="swimlane;fontStyle=1;align=center;verticalAlign=top;childLayout=stackLayout;horizontal=1;startSize=26;horizontalStack=0;resizeParent=1;resizeParentMax=0;resizeLast=0;collapsible=1;marginBottom=0;whiteSpace=wrap;html=1;" parent="1" vertex="1">
          <mxGeometry x="320" width="190" height="100" as="geometry" />
        </mxCell>
        <mxCell id="VDKzRDDV_KGsR_dn3_d1-18" value="" style="line;strokeWidth=1;fillColor=none;align=left;verticalAlign=middle;spacingTop=-1;spacingLeft=3;spacingRight=3;rotatable=0;labelPosition=right;points=[];portConstraint=eastwest;strokeColor=inherit;" parent="VDKzRDDV_KGsR_dn3_d1-17" vertex="1">
          <mxGeometry y="26" width="190" height="8" as="geometry" />
        </mxCell>
        <mxCell id="VDKzRDDV_KGsR_dn3_d1-19" value="&lt;span style=&quot;font-size: 14px;&quot;&gt;+ movementRule(void): array&amp;lt;pairt&amp;lt;int,int&amp;gt;&amp;gt; = 0&lt;/span&gt;" style="text;strokeColor=none;fillColor=none;align=left;verticalAlign=top;spacingLeft=4;spacingRight=4;overflow=hidden;rotatable=0;points=[[0,0.5],[1,0.5]];portConstraint=eastwest;whiteSpace=wrap;html=1;" parent="VDKzRDDV_KGsR_dn3_d1-17" vertex="1">
          <mxGeometry y="34" width="190" height="66" as="geometry" />
        </mxCell>
        <mxCell id="VDKzRDDV_KGsR_dn3_d1-20" value="Knight: ChessPiece" style="swimlane;fontStyle=1;align=center;verticalAlign=top;childLayout=stackLayout;horizontal=1;startSize=26;horizontalStack=0;resizeParent=1;resizeParentMax=0;resizeLast=0;collapsible=1;marginBottom=0;whiteSpace=wrap;html=1;" parent="1" vertex="1">
          <mxGeometry x="-350" width="190" height="100" as="geometry" />
        </mxCell>
        <mxCell id="VDKzRDDV_KGsR_dn3_d1-21" value="" style="line;strokeWidth=1;fillColor=none;align=left;verticalAlign=middle;spacingTop=-1;spacingLeft=3;spacingRight=3;rotatable=0;labelPosition=right;points=[];portConstraint=eastwest;strokeColor=inherit;" parent="VDKzRDDV_KGsR_dn3_d1-20" vertex="1">
          <mxGeometry y="26" width="190" height="8" as="geometry" />
        </mxCell>
        <mxCell id="VDKzRDDV_KGsR_dn3_d1-22" value="&lt;span style=&quot;font-size: 14px;&quot;&gt;+ movementRule(void): array&amp;lt;pairt&amp;lt;int,int&amp;gt;&amp;gt; = 0&lt;/span&gt;" style="text;strokeColor=none;fillColor=none;align=left;verticalAlign=top;spacingLeft=4;spacingRight=4;overflow=hidden;rotatable=0;points=[[0,0.5],[1,0.5]];portConstraint=eastwest;whiteSpace=wrap;html=1;" parent="VDKzRDDV_KGsR_dn3_d1-20" vertex="1">
          <mxGeometry y="34" width="190" height="66" as="geometry" />
        </mxCell>
        <mxCell id="VDKzRDDV_KGsR_dn3_d1-23" value="King: ChessPiece" style="swimlane;fontStyle=1;align=center;verticalAlign=top;childLayout=stackLayout;horizontal=1;startSize=26;horizontalStack=0;resizeParent=1;resizeParentMax=0;resizeLast=0;collapsible=1;marginBottom=0;whiteSpace=wrap;html=1;" parent="1" vertex="1">
          <mxGeometry x="-560" width="190" height="100" as="geometry" />
        </mxCell>
        <mxCell id="VDKzRDDV_KGsR_dn3_d1-24" value="" style="line;strokeWidth=1;fillColor=none;align=left;verticalAlign=middle;spacingTop=-1;spacingLeft=3;spacingRight=3;rotatable=0;labelPosition=right;points=[];portConstraint=eastwest;strokeColor=inherit;" parent="VDKzRDDV_KGsR_dn3_d1-23" vertex="1">
          <mxGeometry y="26" width="190" height="8" as="geometry" />
        </mxCell>
        <mxCell id="VDKzRDDV_KGsR_dn3_d1-25" value="&lt;span style=&quot;font-size: 14px;&quot;&gt;+ movementRule(void): array&amp;lt;pairt&amp;lt;int,int&amp;gt;&amp;gt; = 0&lt;/span&gt;&lt;div&gt;&lt;br&gt;&lt;/div&gt;" style="text;strokeColor=none;fillColor=none;align=left;verticalAlign=top;spacingLeft=4;spacingRight=4;overflow=hidden;rotatable=0;points=[[0,0.5],[1,0.5]];portConstraint=eastwest;whiteSpace=wrap;html=1;" parent="VDKzRDDV_KGsR_dn3_d1-23" vertex="1">
          <mxGeometry y="34" width="190" height="66" as="geometry" />
        </mxCell>
        <mxCell id="VDKzRDDV_KGsR_dn3_d1-26" value="Queen: ChessPiece" style="swimlane;fontStyle=1;align=center;verticalAlign=top;childLayout=stackLayout;horizontal=1;startSize=26;horizontalStack=0;resizeParent=1;resizeParentMax=0;resizeLast=0;collapsible=1;marginBottom=0;whiteSpace=wrap;html=1;" parent="1" vertex="1">
          <mxGeometry x="530" width="190" height="100" as="geometry" />
        </mxCell>
        <mxCell id="VDKzRDDV_KGsR_dn3_d1-27" value="" style="line;strokeWidth=1;fillColor=none;align=left;verticalAlign=middle;spacingTop=-1;spacingLeft=3;spacingRight=3;rotatable=0;labelPosition=right;points=[];portConstraint=eastwest;strokeColor=inherit;" parent="VDKzRDDV_KGsR_dn3_d1-26" vertex="1">
          <mxGeometry y="26" width="190" height="8" as="geometry" />
        </mxCell>
        <mxCell id="VDKzRDDV_KGsR_dn3_d1-28" value="&lt;span style=&quot;font-size: 14px;&quot;&gt;+ movementRule(void): array&amp;lt;pairt&amp;lt;int,int&amp;gt;&amp;gt; = 0&lt;/span&gt;" style="text;strokeColor=none;fillColor=none;align=left;verticalAlign=top;spacingLeft=4;spacingRight=4;overflow=hidden;rotatable=0;points=[[0,0.5],[1,0.5]];portConstraint=eastwest;whiteSpace=wrap;html=1;" parent="VDKzRDDV_KGsR_dn3_d1-26" vertex="1">
          <mxGeometry y="34" width="190" height="66" as="geometry" />
        </mxCell>
        <mxCell id="VDKzRDDV_KGsR_dn3_d1-29" value="&lt;font style=&quot;font-size: 14px;&quot;&gt;Inherit&lt;/font&gt;" style="edgeStyle=orthogonalEdgeStyle;rounded=0;orthogonalLoop=1;jettySize=auto;html=1;" parent="1" source="VDKzRDDV_KGsR_dn3_d1-8" target="VDKzRDDV_KGsR_dn3_d1-23" edge="1">
          <mxGeometry relative="1" as="geometry" />
        </mxCell>
        <mxCell id="VDKzRDDV_KGsR_dn3_d1-31" value="&lt;font style=&quot;font-size: 14px;&quot;&gt;Inherit&lt;/font&gt;" style="edgeStyle=orthogonalEdgeStyle;rounded=0;orthogonalLoop=1;jettySize=auto;html=1;entryX=0.5;entryY=0;entryDx=0;entryDy=0;" parent="1" source="VDKzRDDV_KGsR_dn3_d1-8" target="VDKzRDDV_KGsR_dn3_d1-20" edge="1">
          <mxGeometry relative="1" as="geometry" />
        </mxCell>
        <mxCell id="VDKzRDDV_KGsR_dn3_d1-32" style="edgeStyle=orthogonalEdgeStyle;rounded=0;orthogonalLoop=1;jettySize=auto;html=1;entryX=0.5;entryY=0;entryDx=0;entryDy=0;" parent="1" source="VDKzRDDV_KGsR_dn3_d1-8" target="VDKzRDDV_KGsR_dn3_d1-26" edge="1">
          <mxGeometry relative="1" as="geometry" />
        </mxCell>
        <mxCell id="VDKzRDDV_KGsR_dn3_d1-39" value="&lt;font style=&quot;font-size: 14px;&quot;&gt;Inherit&lt;/font&gt;" style="edgeLabel;html=1;align=center;verticalAlign=middle;resizable=0;points=[];" parent="VDKzRDDV_KGsR_dn3_d1-32" vertex="1" connectable="0">
          <mxGeometry x="0.6081" y="2" relative="1" as="geometry">
            <mxPoint x="-47" y="-124" as="offset" />
          </mxGeometry>
        </mxCell>
        <mxCell id="VDKzRDDV_KGsR_dn3_d1-33" style="edgeStyle=orthogonalEdgeStyle;rounded=0;orthogonalLoop=1;jettySize=auto;html=1;entryX=0.5;entryY=0;entryDx=0;entryDy=0;" parent="1" source="VDKzRDDV_KGsR_dn3_d1-8" target="VDKzRDDV_KGsR_dn3_d1-17" edge="1">
          <mxGeometry relative="1" as="geometry" />
        </mxCell>
        <mxCell id="VDKzRDDV_KGsR_dn3_d1-38" value="&lt;font style=&quot;font-size: 14px;&quot;&gt;Inherit&lt;/font&gt;" style="edgeLabel;html=1;align=center;verticalAlign=middle;resizable=0;points=[];" parent="VDKzRDDV_KGsR_dn3_d1-33" vertex="1" connectable="0">
          <mxGeometry x="0.3995" y="3" relative="1" as="geometry">
            <mxPoint x="-3" y="-60" as="offset" />
          </mxGeometry>
        </mxCell>
        <mxCell id="VDKzRDDV_KGsR_dn3_d1-34" style="edgeStyle=orthogonalEdgeStyle;rounded=0;orthogonalLoop=1;jettySize=auto;html=1;entryX=0.5;entryY=0;entryDx=0;entryDy=0;" parent="1" source="VDKzRDDV_KGsR_dn3_d1-8" target="VDKzRDDV_KGsR_dn3_d1-10" edge="1">
          <mxGeometry relative="1" as="geometry" />
        </mxCell>
        <mxCell id="VDKzRDDV_KGsR_dn3_d1-36" value="&lt;font style=&quot;font-size: 14px;&quot;&gt;Inherit&lt;/font&gt;" style="edgeLabel;html=1;align=center;verticalAlign=middle;resizable=0;points=[];" parent="VDKzRDDV_KGsR_dn3_d1-34" vertex="1" connectable="0">
          <mxGeometry x="-0.3351" y="1" relative="1" as="geometry">
            <mxPoint as="offset" />
          </mxGeometry>
        </mxCell>
        <mxCell id="VDKzRDDV_KGsR_dn3_d1-35" style="edgeStyle=orthogonalEdgeStyle;rounded=0;orthogonalLoop=1;jettySize=auto;html=1;" parent="1" source="VDKzRDDV_KGsR_dn3_d1-8" target="VDKzRDDV_KGsR_dn3_d1-14" edge="1">
          <mxGeometry relative="1" as="geometry" />
        </mxCell>
        <mxCell id="VDKzRDDV_KGsR_dn3_d1-37" value="&lt;font style=&quot;font-size: 14px;&quot;&gt;Inherit&lt;/font&gt;" style="edgeLabel;html=1;align=center;verticalAlign=middle;resizable=0;points=[];" parent="VDKzRDDV_KGsR_dn3_d1-35" vertex="1" connectable="0">
          <mxGeometry x="-0.2693" y="4" relative="1" as="geometry">
            <mxPoint as="offset" />
          </mxGeometry>
        </mxCell>
        <mxCell id="VDKzRDDV_KGsR_dn3_d1-40" value="&lt;p style=&quot;margin: 4px 0px 0px; text-align: center; font-size: 14px;&quot;&gt;&lt;b style=&quot;&quot;&gt;&lt;font style=&quot;font-size: 14px;&quot;&gt;Class: Game&lt;/font&gt;&lt;/b&gt;&lt;/p&gt;&lt;hr size=&quot;1&quot; style=&quot;border-style: solid; font-size: 14px;&quot;&gt;&lt;p style=&quot;margin: 0px 0px 0px 4px; font-size: 14px;&quot;&gt;&lt;font style=&quot;font-size: 14px;&quot;&gt;+ playerOnePieces: Array(16)&lt;/font&gt;&lt;/p&gt;&lt;p style=&quot;margin: 0px 0px 0px 4px; font-size: 14px;&quot;&gt;&lt;font style=&quot;font-size: 14px;&quot;&gt;+ playerTwoPieces: Array(16)&lt;/font&gt;&lt;/p&gt;&lt;hr size=&quot;1&quot; style=&quot;border-style: solid; font-size: 14px;&quot;&gt;&lt;p style=&quot;margin: 0px 0px 0px 4px; font-size: 14px;&quot;&gt;&lt;font style=&quot;font-size: 14px;&quot;&gt;+ Game(void): void&lt;/font&gt;&lt;/p&gt;" style="verticalAlign=top;align=left;overflow=fill;html=1;whiteSpace=wrap;" parent="1" vertex="1">
          <mxGeometry x="-60" y="-670" width="220" height="110" as="geometry" />
        </mxCell>
        <mxCell id="u2Fo4Lc265hD3u9dRZYP-5" value="" style="endArrow=classic;html=1;rounded=0;exitX=0.864;exitY=0.545;exitDx=0;exitDy=0;exitPerimeter=0;entryX=0.909;entryY=0;entryDx=0;entryDy=0;entryPerimeter=0;" edge="1" parent="1" source="VDKzRDDV_KGsR_dn3_d1-40" target="VDKzRDDV_KGsR_dn3_d1-5">
          <mxGeometry width="50" height="50" relative="1" as="geometry">
            <mxPoint x="250" y="-560" as="sourcePoint" />
            <mxPoint x="300" y="-610" as="targetPoint" />
            <Array as="points">
              <mxPoint x="200" y="-610" />
            </Array>
          </mxGeometry>
        </mxCell>
        <mxCell id="u2Fo4Lc265hD3u9dRZYP-6" value="" style="endArrow=classic;html=1;rounded=0;exitX=0.864;exitY=0.545;exitDx=0;exitDy=0;exitPerimeter=0;" edge="1" parent="1">
          <mxGeometry width="50" height="50" relative="1" as="geometry">
            <mxPoint x="150" y="-630" as="sourcePoint" />
            <mxPoint x="220" y="-390" as="targetPoint" />
            <Array as="points">
              <mxPoint x="220" y="-630" />
            </Array>
          </mxGeometry>
        </mxCell>
        <mxCell id="u2Fo4Lc265hD3u9dRZYP-9" style="edgeStyle=orthogonalEdgeStyle;rounded=0;orthogonalLoop=1;jettySize=auto;html=1;exitX=0.5;exitY=1;exitDx=0;exitDy=0;" edge="1" parent="1">
          <mxGeometry relative="1" as="geometry">
            <mxPoint x="-360" y="550" as="sourcePoint" />
            <mxPoint x="-360" y="550" as="targetPoint" />
          </mxGeometry>
        </mxCell>
        <mxCell id="u2Fo4Lc265hD3u9dRZYP-10" value="&lt;font style=&quot;font-size: 13px;&quot;&gt;&lt;b&gt;CLIENT&lt;/b&gt;&lt;/font&gt;" style="rounded=0;whiteSpace=wrap;html=1;" vertex="1" parent="1">
          <mxGeometry x="-380" y="310" width="120" height="60" as="geometry" />
        </mxCell>
        <mxCell id="u2Fo4Lc265hD3u9dRZYP-11" value="&lt;font style=&quot;font-size: 13px;&quot;&gt;&lt;b&gt;CLIENT&lt;/b&gt;&lt;/font&gt;" style="rounded=0;whiteSpace=wrap;html=1;" vertex="1" parent="1">
          <mxGeometry x="-380" y="390" width="120" height="60" as="geometry" />
        </mxCell>
        <mxCell id="u2Fo4Lc265hD3u9dRZYP-12" value="&lt;font style=&quot;font-size: 13px;&quot;&gt;&lt;b&gt;CLIENT&lt;/b&gt;&lt;/font&gt;" style="rounded=0;whiteSpace=wrap;html=1;" vertex="1" parent="1">
          <mxGeometry x="-380" y="470" width="120" height="60" as="geometry" />
        </mxCell>
        <mxCell id="u2Fo4Lc265hD3u9dRZYP-13" value="" style="endArrow=none;dashed=1;html=1;dashPattern=1 3;strokeWidth=4;rounded=0;" edge="1" parent="1">
          <mxGeometry width="50" height="50" relative="1" as="geometry">
            <mxPoint x="-320.5" y="600" as="sourcePoint" />
            <mxPoint x="-320.5" y="540" as="targetPoint" />
          </mxGeometry>
        </mxCell>
        <mxCell id="u2Fo4Lc265hD3u9dRZYP-14" value="" style="swimlane;startSize=0;" vertex="1" parent="1">
          <mxGeometry x="-40" y="320" width="200" height="200" as="geometry" />
        </mxCell>
        <mxCell id="u2Fo4Lc265hD3u9dRZYP-15" value="&lt;font style=&quot;font-size: 13px;&quot;&gt;&lt;b&gt;SERVER&amp;nbsp;&lt;/b&gt;&lt;/font&gt;&lt;div&gt;&lt;font style=&quot;font-size: 13px;&quot;&gt;&lt;b&gt;[NODEJS]&lt;/b&gt;&lt;/font&gt;&lt;/div&gt;" style="text;html=1;align=center;verticalAlign=middle;resizable=0;points=[];autosize=1;strokeColor=none;fillColor=none;" vertex="1" parent="u2Fo4Lc265hD3u9dRZYP-14">
          <mxGeometry x="55" y="8" width="90" height="40" as="geometry" />
        </mxCell>
        <mxCell id="u2Fo4Lc265hD3u9dRZYP-33" value="Room 01" style="rounded=0;whiteSpace=wrap;html=1;" vertex="1" parent="u2Fo4Lc265hD3u9dRZYP-14">
          <mxGeometry x="20" y="50" width="170" height="30" as="geometry" />
        </mxCell>
        <mxCell id="u2Fo4Lc265hD3u9dRZYP-34" value="Room 01" style="rounded=0;whiteSpace=wrap;html=1;" vertex="1" parent="u2Fo4Lc265hD3u9dRZYP-14">
          <mxGeometry x="20" y="85" width="170" height="30" as="geometry" />
        </mxCell>
        <mxCell id="u2Fo4Lc265hD3u9dRZYP-35" value="Room 01" style="rounded=0;whiteSpace=wrap;html=1;" vertex="1" parent="u2Fo4Lc265hD3u9dRZYP-14">
          <mxGeometry x="20" y="120" width="170" height="30" as="geometry" />
        </mxCell>
        <mxCell id="u2Fo4Lc265hD3u9dRZYP-36" value="" style="endArrow=none;dashed=1;html=1;dashPattern=1 3;strokeWidth=2;rounded=0;" edge="1" parent="u2Fo4Lc265hD3u9dRZYP-14">
          <mxGeometry width="50" height="50" relative="1" as="geometry">
            <mxPoint x="95" y="190" as="sourcePoint" />
            <mxPoint x="95" y="160" as="targetPoint" />
          </mxGeometry>
        </mxCell>
        <mxCell id="u2Fo4Lc265hD3u9dRZYP-16" value="" style="swimlane;startSize=0;" vertex="1" parent="1">
          <mxGeometry x="320" y="320" width="200" height="200" as="geometry" />
        </mxCell>
        <mxCell id="u2Fo4Lc265hD3u9dRZYP-17" value="&lt;font style=&quot;font-size: 13px;&quot;&gt;&lt;b&gt;GAME LOGIC SERVER&lt;/b&gt;&lt;/font&gt;&lt;div style=&quot;font-size: 13px;&quot;&gt;&lt;font style=&quot;font-size: 13px;&quot;&gt;&lt;b&gt;C++&lt;/b&gt;&lt;/font&gt;&lt;/div&gt;" style="text;html=1;align=center;verticalAlign=middle;resizable=0;points=[];autosize=1;strokeColor=none;fillColor=none;" vertex="1" parent="u2Fo4Lc265hD3u9dRZYP-16">
          <mxGeometry x="20" y="80" width="160" height="40" as="geometry" />
        </mxCell>
        <mxCell id="u2Fo4Lc265hD3u9dRZYP-18" value="" style="endArrow=classic;html=1;rounded=0;exitX=1;exitY=0.25;exitDx=0;exitDy=0;entryX=-0.02;entryY=0.1;entryDx=0;entryDy=0;entryPerimeter=0;" edge="1" parent="1" source="u2Fo4Lc265hD3u9dRZYP-10" target="u2Fo4Lc265hD3u9dRZYP-14">
          <mxGeometry width="50" height="50" relative="1" as="geometry">
            <mxPoint x="-250" y="350" as="sourcePoint" />
            <mxPoint x="-200" y="300" as="targetPoint" />
            <Array as="points">
              <mxPoint x="-160" y="340" />
            </Array>
          </mxGeometry>
        </mxCell>
        <mxCell id="u2Fo4Lc265hD3u9dRZYP-19" value="" style="endArrow=classic;html=1;rounded=0;exitX=-0.025;exitY=0.18;exitDx=0;exitDy=0;exitPerimeter=0;entryX=1.017;entryY=0.883;entryDx=0;entryDy=0;entryPerimeter=0;" edge="1" parent="1" source="u2Fo4Lc265hD3u9dRZYP-14" target="u2Fo4Lc265hD3u9dRZYP-10">
          <mxGeometry width="50" height="50" relative="1" as="geometry">
            <mxPoint x="-170" y="440" as="sourcePoint" />
            <mxPoint x="-120" y="390" as="targetPoint" />
            <Array as="points">
              <mxPoint x="-160" y="356" />
            </Array>
          </mxGeometry>
        </mxCell>
        <mxCell id="u2Fo4Lc265hD3u9dRZYP-20" value="" style="endArrow=classic;html=1;rounded=0;exitX=1;exitY=0.25;exitDx=0;exitDy=0;entryX=-0.02;entryY=0.1;entryDx=0;entryDy=0;entryPerimeter=0;" edge="1" parent="1">
          <mxGeometry width="50" height="50" relative="1" as="geometry">
            <mxPoint x="-260" y="405.5" as="sourcePoint" />
            <mxPoint x="-44" y="420.5" as="targetPoint" />
            <Array as="points">
              <mxPoint x="-160" y="420.5" />
            </Array>
          </mxGeometry>
        </mxCell>
        <mxCell id="u2Fo4Lc265hD3u9dRZYP-21" value="" style="endArrow=classic;html=1;rounded=0;exitX=1;exitY=0.25;exitDx=0;exitDy=0;entryX=-0.02;entryY=0.1;entryDx=0;entryDy=0;entryPerimeter=0;" edge="1" parent="1">
          <mxGeometry width="50" height="50" relative="1" as="geometry">
            <mxPoint x="-260" y="480" as="sourcePoint" />
            <mxPoint x="-44" y="495" as="targetPoint" />
            <Array as="points">
              <mxPoint x="-160" y="495" />
            </Array>
          </mxGeometry>
        </mxCell>
        <mxCell id="u2Fo4Lc265hD3u9dRZYP-22" value="" style="endArrow=classic;html=1;rounded=0;exitX=-0.025;exitY=0.18;exitDx=0;exitDy=0;exitPerimeter=0;entryX=1.017;entryY=0.883;entryDx=0;entryDy=0;entryPerimeter=0;" edge="1" parent="1">
          <mxGeometry width="50" height="50" relative="1" as="geometry">
            <mxPoint x="-40" y="433" as="sourcePoint" />
            <mxPoint x="-253" y="440" as="targetPoint" />
            <Array as="points">
              <mxPoint x="-155" y="433" />
            </Array>
          </mxGeometry>
        </mxCell>
        <mxCell id="u2Fo4Lc265hD3u9dRZYP-23" value="" style="endArrow=classic;html=1;rounded=0;exitX=-0.025;exitY=0.18;exitDx=0;exitDy=0;exitPerimeter=0;entryX=1.017;entryY=0.883;entryDx=0;entryDy=0;entryPerimeter=0;" edge="1" parent="1">
          <mxGeometry width="50" height="50" relative="1" as="geometry">
            <mxPoint x="-40" y="510" as="sourcePoint" />
            <mxPoint x="-253" y="517" as="targetPoint" />
            <Array as="points">
              <mxPoint x="-155" y="510" />
            </Array>
          </mxGeometry>
        </mxCell>
        <mxCell id="u2Fo4Lc265hD3u9dRZYP-24" value="&lt;b&gt;Chess Move Transfer to Server&lt;/b&gt;" style="text;html=1;align=center;verticalAlign=middle;resizable=0;points=[];autosize=1;strokeColor=none;fillColor=none;" vertex="1" parent="1">
          <mxGeometry x="-245" y="300" width="200" height="30" as="geometry" />
        </mxCell>
        <mxCell id="u2Fo4Lc265hD3u9dRZYP-26" value="&lt;b&gt;Room Info + Game Move&lt;/b&gt;" style="text;html=1;align=center;verticalAlign=middle;resizable=0;points=[];autosize=1;strokeColor=none;fillColor=none;" vertex="1" parent="1">
          <mxGeometry x="160" y="368" width="160" height="30" as="geometry" />
        </mxCell>
        <mxCell id="u2Fo4Lc265hD3u9dRZYP-27" value="&lt;b&gt;updated Game State&lt;/b&gt;" style="text;html=1;align=center;verticalAlign=middle;resizable=0;points=[];autosize=1;strokeColor=none;fillColor=none;" vertex="1" parent="1">
          <mxGeometry x="-225" y="363" width="140" height="30" as="geometry" />
        </mxCell>
        <mxCell id="u2Fo4Lc265hD3u9dRZYP-28" value="" style="endArrow=classic;html=1;rounded=0;entryX=1.025;entryY=1.033;entryDx=0;entryDy=0;entryPerimeter=0;" edge="1" parent="1" target="u2Fo4Lc265hD3u9dRZYP-26">
          <mxGeometry width="50" height="50" relative="1" as="geometry">
            <mxPoint x="160" y="400" as="sourcePoint" />
            <mxPoint x="210" y="350" as="targetPoint" />
          </mxGeometry>
        </mxCell>
        <mxCell id="u2Fo4Lc265hD3u9dRZYP-29" value="" style="endArrow=classic;html=1;rounded=0;exitX=0;exitY=0.6;exitDx=0;exitDy=0;exitPerimeter=0;entryX=0.99;entryY=0.61;entryDx=0;entryDy=0;entryPerimeter=0;" edge="1" parent="1" source="u2Fo4Lc265hD3u9dRZYP-16" target="u2Fo4Lc265hD3u9dRZYP-14">
          <mxGeometry width="50" height="50" relative="1" as="geometry">
            <mxPoint x="200" y="490" as="sourcePoint" />
            <mxPoint x="250" y="440" as="targetPoint" />
          </mxGeometry>
        </mxCell>
        <mxCell id="u2Fo4Lc265hD3u9dRZYP-30" value="&lt;b&gt;game update&lt;/b&gt;" style="text;html=1;align=center;verticalAlign=middle;resizable=0;points=[];autosize=1;strokeColor=none;fillColor=none;" vertex="1" parent="1">
          <mxGeometry x="190" y="450" width="100" height="30" as="geometry" />
        </mxCell>
        <mxCell id="u2Fo4Lc265hD3u9dRZYP-31" value="&lt;font style=&quot;font-size: 13px;&quot;&gt;&lt;b&gt;[ Socket ]&lt;/b&gt;&lt;/font&gt;" style="text;html=1;align=center;verticalAlign=middle;resizable=0;points=[];autosize=1;strokeColor=none;fillColor=none;" vertex="1" parent="1">
          <mxGeometry x="-200" y="528" width="80" height="30" as="geometry" />
        </mxCell>
        <mxCell id="u2Fo4Lc265hD3u9dRZYP-32" value="&lt;font style=&quot;font-size: 13px;&quot;&gt;&lt;b&gt;[ ... ]&lt;/b&gt;&lt;/font&gt;" style="text;html=1;align=center;verticalAlign=middle;resizable=0;points=[];autosize=1;strokeColor=none;fillColor=none;" vertex="1" parent="1">
          <mxGeometry x="215" y="530" width="50" height="30" as="geometry" />
        </mxCell>
      </root>
    </mxGraphModel>
  </diagram>
</mxfile>
